# xmcd
#
# Track frame offsets: 
#        150
#        19820
#        40388
#        84938
#        106745
#        135370
#        168320
#        198333
#        221138
#        241278
#        270913
#
# Disc length: 3947 seconds
#
# Revision: 2
# Processed by: cddbd v1.5.2PL0 Copyright (c) Steve Scherf et al.
# Submitted via: ExactAudioCopy v0.95b4
#
DISCID=880f690b
DTITLE=Junior Kimbrough - Sad Days, Lonely Nights
DYEAR=1900
DGENRE=Blues
TTITLE0=Sad Days, Lonely Nights
TTITLE1=Lonesome in My Home
TTITLE2=Lord, Have Mercy on Me
TTITLE3=Crawling King Snake
TTITLE4=My Mind is Rambling
TTITLE5=Leaving in the Morning
TTITLE6=Old Black Mattie
TTITLE7=I'm in Love
TTITLE8=Pull Your Clothes Off
TTITLE9=I'm Gonna Have to Leave Here
TTITLE10=Sad Days, Lonely Nights
EXTD=
EXTT0=
EXTT1=
EXTT2=
EXTT3=
EXTT4=
EXTT5=
EXTT6=
EXTT7=
EXTT8=
EXTT9=
EXTT10=
PLAYORDER=
